<svg width="85" height="72" viewBox="0 0 85 72" fill="none" xmlns="http://www.w3.org/2000/svg">
<path d="M63.0877 11.1165H66.1123C71.4626 11.2944 75.9169 13.0443 79.4751 16.3662C83.0309 19.6859 84.8726 23.8661 85.0001 28.9069V53.4545C84.8726 58.493 83.0309 62.6877 79.4751 66.0385C74.1413 71.0648 71.4638 71.1215 66.1123 71.2415H18.8877C13.5374 71.1215 9.0832 69.3871 5.525 66.0385C0.187708 61.0156 0.1275 58.4941 0 53.4545V28.9069C0.1275 23.8661 1.96917 19.6859 5.525 16.3662C9.08084 13.0465 13.5351 11.2966 18.8877 11.1165H21.629L17.4711 7.38097C17.0428 6.9894 16.7045 6.51912 16.4772 5.99931C16.25 5.4795 16.1386 4.92125 16.15 4.35921C16.15 3.17185 16.5904 2.16348 17.4711 1.33411L17.5667 1.24406C18.5111 0.414686 19.5972 0 20.825 0C22.0528 0 23.1389 0.414686 24.0833 1.24406L34.1877 10.4061C34.4404 10.6418 34.6611 10.8786 34.85 11.1165H49.9623C50.1077 10.8515 50.2993 10.6114 50.529 10.4061L60.6334 1.24406C61.5778 0.414686 62.6639 0 63.8917 0C65.1207 0 66.2363 0.503627 67.1819 1.33411C68.1275 2.1646 68.5667 3.17185 68.5667 4.35921C68.5667 5.54212 68.1264 6.54937 67.2457 7.38097L63.0877 11.1165ZM18.8877 19.7448C16.2433 19.8049 14.0238 20.6643 12.2294 22.323C10.4349 23.9862 9.50702 26.0919 9.44563 28.64V53.7213C9.50702 56.2695 10.4349 58.374 12.2294 60.035C14.0238 61.696 16.2433 62.5554 18.8877 62.6132H66.1123C68.7568 62.5554 70.9762 61.696 72.7707 60.035C74.5651 58.374 75.493 56.2695 75.5544 53.7213V28.64C75.493 26.0897 74.5651 23.984 72.7707 22.323C70.9762 20.662 68.7568 19.8027 66.1123 19.7448H18.8877ZM28.3334 32.6424C29.6556 32.6424 30.757 33.0571 31.6377 33.8864C32.5231 34.718 32.9954 35.7853 33.0544 37.0883V41.0006C32.9954 42.3036 32.5231 43.3708 31.6377 44.2024C30.757 45.0363 29.6556 45.4521 28.3334 45.4498C26.35 45.4465 25.9109 45.0329 25.029 44.2024C24.1436 43.3731 23.6713 42.3058 23.6123 41.0006V37.0883C23.6123 35.8431 24.068 34.7903 24.9794 33.9298C25.8931 33.0715 27.0111 32.6424 28.3334 32.6424ZM56.6667 32.6424C57.9889 32.6424 59.0904 33.0571 59.9711 33.8864C60.8565 34.718 61.3287 35.7853 61.3877 37.0883V41.0006C61.3287 42.3036 60.8565 43.3708 59.9711 44.2024C59.0904 45.0363 57.9889 45.4521 56.6667 45.4498C54.6834 45.4465 54.2442 45.0329 53.3623 44.2024C52.4769 43.3731 52.0047 42.3058 51.9457 41.0006V37.0883C52.0047 35.7853 52.4769 34.718 53.3623 33.8864C54.243 33.0571 55.3445 32.6424 56.6667 32.6424Z" fill="black"/>
</svg>
