<svg width="85" height="80" viewBox="0 0 85 80" fill="none" xmlns="http://www.w3.org/2000/svg">
<path d="M72.3743 68.1733H59.7945V49.61C59.7945 45.1833 59.699 39.4867 53.2392 39.4867C46.6803 39.4867 45.6786 44.3033 45.6786 49.2833V68.1733H33.0988V30H45.183V35.2033H45.3459C47.0343 32.2033 51.1402 29.0367 57.2743 29.0367C70.0204 29.0367 72.3778 36.9367 72.3778 47.22L72.3743 68.1733ZM18.8909 24.7767C17.9309 24.778 16.9802 24.6008 16.0931 24.2553C15.2061 23.9097 14.4002 23.4026 13.7218 22.7631C13.0434 22.1236 12.5057 21.3642 12.1396 20.5285C11.7736 19.6928 11.5863 18.7973 11.5887 17.8933C11.5894 16.5326 12.0185 15.2026 12.8219 14.0716C13.6252 12.9405 14.7667 12.0592 16.1019 11.5391C17.4371 11.019 18.9061 10.8834 20.3232 11.1495C21.7402 11.4156 23.0416 12.0715 24.0628 13.0341C25.0841 13.9968 25.7793 15.223 26.0605 16.5577C26.3417 17.8924 26.1963 19.2757 25.6427 20.5326C25.0891 21.7895 24.1521 22.8636 22.9503 23.619C21.7485 24.3745 20.3358 24.7773 18.8909 24.7767ZM25.1984 68.1733H12.5833V30H25.1984V68.1733ZM78.6677 0H6.26864C2.80337 0 0 2.58 0 5.76333V74.2367C0 77.4233 2.80337 80 6.26864 80H78.6571C82.1188 80 84.9505 77.4233 84.9505 74.2367V5.76333C84.9505 2.58 82.1188 0 78.6571 0H78.6677Z" fill="black"/>
</svg>
