<svg width="98" height="98" viewBox="0 0 98 98" fill="none" xmlns="http://www.w3.org/2000/svg">
<path d="M48.9557 98C52.1485 98 54.7649 95.65 55.2082 92.324C59.598 62.7023 63.6333 58.5783 92.1025 55.3414C95.3836 54.9422 97.9113 52.1931 97.9113 49.0002C97.9113 45.7628 95.4281 43.1023 92.1467 42.6145C63.8552 38.6679 60.3523 35.2091 55.2082 5.63192C54.6317 2.35042 52.104 0 48.9557 0C45.7187 0 43.1464 2.35042 42.6145 5.67603C38.3133 35.2536 34.278 39.3776 5.85333 42.6145C2.48318 43.0582 0 45.7187 0 49.0002C0 52.1931 2.39453 54.8535 5.76468 55.3414C34.1003 59.3766 37.5591 62.7909 42.6145 92.3685C43.2796 95.6941 45.8515 98 48.9557 98Z" fill="#0C0C0C"/>
</svg>
