<svg width="85" height="66" viewBox="0 0 85 66" fill="none" xmlns="http://www.w3.org/2000/svg">
<path d="M30.7806 0C13.7806 0 0 10.9664 0 24.4876C0 31.8652 4.14375 38.5058 10.6321 42.9984C10.9921 43.2444 11.2594 43.5921 11.3951 43.991C11.5308 44.3899 11.5278 44.8192 11.3865 45.2164L10.0052 50.1526C9.93792 50.386 9.83521 50.6229 9.83521 50.863C9.83521 51.4066 10.2956 51.8469 10.8623 51.8469C11.0731 51.8382 11.2775 51.776 11.4538 51.6668L18.1936 47.9513C18.5662 47.7263 18.9864 47.5805 19.425 47.5241C19.8635 47.4676 20.3099 47.5019 20.7329 47.6244C23.9983 48.5155 27.3809 48.968 30.7806 48.9686C31.7581 48.9686 32.7038 48.8785 33.6529 48.8018C30.6177 40.2034 34.209 32.2188 40.4954 27.3026C46.5269 22.5832 54.2442 20.6987 61.2248 21.1723C59.1848 9.22205 46.364 0 30.7806 0ZM20.4886 12.6841C22.7623 12.6841 24.604 14.4484 24.604 16.6197C24.6077 17.1321 24.5042 17.6403 24.2994 18.1151C24.0946 18.5899 23.7925 19.022 23.4104 19.3869C23.0282 19.7517 22.5735 20.0421 22.0722 20.2414C21.5708 20.4408 21.0327 20.5452 20.4886 20.5486C19.9441 20.5452 19.4057 20.4407 18.9041 20.2411C18.4026 20.0416 17.9477 19.7509 17.5655 19.3857C17.1833 19.0205 16.8813 18.5879 16.6767 18.1128C16.4721 17.6376 16.3689 17.1291 16.3731 16.6164C16.3731 14.4451 18.2148 12.6807 20.4886 12.6807V12.6841ZM41.0763 12.6841C43.35 12.6841 45.1917 14.4484 45.1917 16.6197C45.1954 17.1321 45.0919 17.6403 44.8871 18.1151C44.6823 18.5899 44.3802 19.022 43.9981 19.3869C43.6159 19.7517 43.1612 20.0421 42.6599 20.2414C42.1586 20.4408 41.6204 20.5452 41.0763 20.5486C40.5321 20.5452 39.994 20.4408 39.4927 20.2414C38.9913 20.0421 38.5366 19.7517 38.1545 19.3869C37.7723 19.022 37.4702 18.5899 37.2654 18.1151C37.0606 17.6403 36.9571 17.1321 36.9609 16.6197C36.9609 14.4484 38.8025 12.6841 41.0763 12.6841ZM59.9888 22.2463C53.6244 22.0729 46.7217 23.954 41.2888 28.2031C35.1971 32.9659 31.7723 40.6103 34.9846 48.9485C38.3209 57.13 47.9684 63.0534 59.3655 63.0534C62.2909 63.0534 65.11 62.6532 67.7273 61.9328C68.0803 61.8313 68.4525 61.8032 68.8182 61.8504C69.1839 61.8977 69.5343 62.0191 69.8453 62.2063L75.4553 65.2947C75.6041 65.3851 75.7745 65.439 75.9511 65.4515C76.4257 65.4515 76.8011 65.0813 76.8011 64.6277C76.8011 64.4276 76.7196 64.2275 76.6665 64.0373L75.5084 59.9249C75.457 59.7556 75.4297 59.5807 75.4269 59.4046C75.4256 59.1461 75.4895 58.891 75.6132 58.6603C75.737 58.4295 75.9171 58.2297 76.1388 58.0772C81.5434 54.3384 85.0001 48.8018 85.0001 42.6649C85.0001 31.9586 74.6194 23.1969 61.4267 22.3597V22.353C60.9486 22.3197 60.4705 22.263 59.9852 22.253L59.9888 22.2463ZM51.0284 33.166C52.9232 33.166 54.4602 34.6335 54.4602 36.4412C54.4635 36.8687 54.3773 37.2926 54.2066 37.6888C54.0359 38.0849 53.784 38.4455 53.4654 38.7499C53.1467 39.0544 52.7674 39.2967 52.3493 39.4631C51.9312 39.6295 51.4823 39.7168 51.0284 39.7198C50.5744 39.7168 50.1256 39.6295 49.7074 39.4631C49.2893 39.2967 48.91 39.0544 48.5914 38.7499C48.2727 38.4455 48.0208 38.0849 47.8501 37.6888C47.6794 37.2926 47.5932 36.8687 47.5965 36.4412C47.5965 34.6335 49.1336 33.166 51.0319 33.166H51.0284ZM68.1842 33.166C70.079 33.166 71.6161 34.6335 71.6161 36.4412C71.6194 36.8687 71.5332 37.2926 71.3625 37.6888C71.1918 38.0849 70.9399 38.4455 70.6212 38.7499C70.3025 39.0544 69.9233 39.2967 69.5051 39.4631C69.087 39.6295 68.6381 39.7168 68.1842 39.7198C67.7303 39.7168 67.2814 39.6295 66.8633 39.4631C66.4451 39.2967 66.0659 39.0544 65.7472 38.7499C65.4285 38.4455 65.1767 38.0849 65.006 37.6888C64.8352 37.2926 64.7491 36.8687 64.7523 36.4412C64.7523 34.6335 66.2894 33.166 68.1842 33.166Z" fill="black"/>
</svg>
