<svg width="85" height="29" viewBox="0 0 85 29" fill="none" xmlns="http://www.w3.org/2000/svg">
<path d="M79.351 7.22094C79.3581 7.2743 79.3864 7.28764 79.5989 7.28431H82.1666C82.5907 7.28554 83.0096 7.19677 83.3923 7.02459C83.7749 6.85242 84.1114 6.60127 84.3768 6.28979C84.6423 5.97832 84.8297 5.61453 84.9254 5.22545C85.021 4.83637 85.0223 4.43201 84.9292 4.04239C84.7788 3.39069 84.3728 2.81642 83.7924 2.4343C83.212 2.05219 82.4999 1.89037 81.7983 1.98117C81.117 2.06498 80.4918 2.38049 80.0404 2.86826C79.589 3.35603 79.3425 3.9824 79.3474 4.62941C79.3474 4.96627 79.3404 6.85072 79.351 7.22094ZM38.5896 23.2571C37.8706 23.2604 33.7976 23.2704 32.6218 23.2671C31.6998 23.2609 30.7844 23.1191 29.9088 22.8469C29.8881 22.8411 29.8659 22.8427 29.8463 22.8513C29.8268 22.8599 29.8112 22.8749 29.8026 22.8935L27.2703 28.0599C27.2611 28.0787 27.2596 28.1 27.2662 28.1197C27.2727 28.1394 27.2868 28.1562 27.3057 28.1667C27.6988 28.3668 28.4957 28.5802 29.0588 28.5802C31.3964 28.6136 33.7339 28.5869 36.0749 28.5802C36.1151 28.5802 36.1422 28.5636 36.1564 28.5302L38.6781 23.3772C38.685 23.3641 38.688 23.3495 38.687 23.3349C38.686 23.3203 38.681 23.3062 38.6723 23.2941C38.6637 23.2819 38.6519 23.2721 38.638 23.2656C38.6241 23.2591 38.6086 23.2562 38.5931 23.2571H38.5896ZM1.68859 7.32433C1.43713 7.32433 1.41942 7.331 1.41942 7.35769L1.384 7.62451C1.28838 8.94863 1.24942 9.27549 0.555247 17.8306C0.512746 18.631 0.434829 19.128 0.0771173 19.8551C-0.0149669 20.0452 -0.0397588 19.9952 0.0877424 20.2286C0.250661 20.5355 2.49964 25.3083 2.87506 26.0321C2.90339 26.0821 2.91402 26.0988 2.93527 26.0988C2.9636 26.0988 3.05214 26.0121 3.10173 25.952C3.61882 25.325 4.05681 24.6513 4.4157 23.9308C5.49946 21.8129 5.97405 19.5115 6.13697 18.2408C6.18655 17.8739 6.21134 17.507 6.24322 17.1401L6.96572 8.41498L7.04364 7.43774C7.05427 7.34101 7.04364 7.32767 6.93739 7.32433H1.68859ZM27.1995 19.8551C26.8809 19.2225 26.7175 18.5306 26.7213 17.8306C26.7072 17.5504 26.6115 16.5298 25.889 7.62451C25.8873 7.53244 25.8754 7.44079 25.8536 7.35102C25.8394 7.31433 25.6694 7.32433 25.5844 7.32433H20.3427C20.2365 7.32767 20.2223 7.34101 20.2365 7.43774L20.3108 8.41498C20.58 11.6903 20.8551 14.9655 21.1361 18.2408C21.3131 19.5749 21.7948 21.8596 22.8609 23.9308C23.2257 24.6479 23.6507 25.3283 24.1713 25.952C24.2244 26.0121 24.3023 26.1221 24.3413 26.1155C24.4121 26.1054 26.9692 20.6389 27.1888 20.2286C27.3163 19.9952 27.2951 20.0452 27.1995 19.8551ZM40.874 16.8099H37.7856C37.7106 16.8106 37.6366 16.7935 37.5705 16.7602C37.5044 16.7268 37.4483 16.6783 37.4074 16.6192C37.3664 16.56 37.342 16.4921 37.3363 16.4216C37.3306 16.3512 37.3438 16.2806 37.3748 16.2163L41.5469 7.46108C41.5528 7.44837 41.5552 7.43447 41.5539 7.42065C41.5527 7.40683 41.5478 7.39353 41.5397 7.38193C41.5316 7.37034 41.5206 7.36084 41.5076 7.35427C41.4947 7.34771 41.4801 7.3443 41.4654 7.34435L36.7975 7.33434C36.7093 7.33468 36.6225 7.31409 36.5451 7.27447C36.4676 7.23485 36.402 7.17747 36.3544 7.10765C36.3067 7.03783 36.2785 6.95782 36.2724 6.87502C36.2663 6.79221 36.2824 6.70929 36.3193 6.63393L39.4219 0.116736C39.4277 0.104024 39.4302 0.0901292 39.4289 0.0763094C39.4277 0.0624896 39.4228 0.0491806 39.4147 0.0375896C39.4066 0.0259985 39.3956 0.0164915 39.3826 0.00992777C39.3696 0.00336405 39.3551 -4.78638e-05 39.3404 5.07238e-07H33.8153C33.7752 5.07238e-07 33.7469 0.0166766 33.7303 0.0500297L30.4507 6.94744C30.1497 7.51111 29.3386 9.06203 29.0376 10.076C28.9705 10.282 28.9464 10.4983 28.9668 10.713C28.979 10.9707 29.0601 11.2213 29.2025 11.4417C29.3449 11.662 29.544 11.845 29.7814 11.9738C30.2827 12.2274 30.8415 12.3635 31.4105 12.3707H33.5001C33.6453 12.3707 31.0634 17.3136 30.5464 18.9479C30.4839 19.1332 30.4563 19.3273 30.4649 19.5216C30.4686 19.79 30.5455 20.053 30.6881 20.2855C30.8307 20.5179 31.0344 20.7119 31.2795 20.849C31.8107 21.1559 32.4908 21.2492 32.9618 21.2492L38.841 21.2459C38.8812 21.2459 38.9083 21.2292 38.9225 21.1959L40.959 16.9267C40.965 16.9137 40.9674 16.8995 40.966 16.8854C40.9646 16.8713 40.9594 16.8578 40.9509 16.8461C40.9424 16.8344 40.9308 16.825 40.9174 16.8186C40.9039 16.8123 40.889 16.8093 40.874 16.8099ZM16.33 0.343536H10.9785C10.9627 0.342598 10.9469 0.344777 10.9321 0.349931C10.9172 0.355085 10.9037 0.363101 10.8924 0.373466C10.881 0.38383 10.8721 0.396314 10.8662 0.410115C10.8603 0.423915 10.8575 0.438728 10.858 0.453601C10.858 3.949 10.8226 9.77578 10.8226 23.2304C10.8226 24.191 9.86992 24.1043 9.83096 24.1043H7.2101C7.06843 24.1076 7.05427 24.1176 7.06843 24.261C7.07197 24.3844 8.71532 27.8098 9.03408 28.4735C9.06949 28.5402 9.14033 28.5836 9.2147 28.5836C9.77075 28.5936 11.9312 28.6136 12.5368 28.5369C13.0787 28.4702 13.5993 28.3368 14.0881 28.0966C15.1506 27.5763 15.8235 26.6991 16.1954 25.5451C16.3796 24.9714 16.461 24.3678 16.461 23.7674C16.4681 15.9961 16.4598 8.22376 16.4362 0.450266C16.4373 0.435996 16.4351 0.42168 16.4297 0.408283C16.4244 0.394886 16.4161 0.382719 16.4054 0.372604C16.3946 0.362489 16.3817 0.354661 16.3675 0.349646C16.3532 0.344632 16.338 0.342548 16.3229 0.343536H16.33ZM58.0654 23.3438C58.0606 23.2993 58.0323 23.2749 57.9804 23.2704H52.7918C52.6218 23.2671 52.6182 23.2638 52.6147 23.107V7.56448C52.6147 7.32434 52.597 7.331 52.8626 7.331H55.9191C56.2024 7.331 56.1847 7.34435 56.1847 7.08419V2.26467C56.1847 1.99118 56.206 2.01119 55.9014 2.01119H43.5054C43.2788 2.01119 43.2398 1.99118 43.2398 2.25467V7.07419C43.2398 7.35102 43.2186 7.331 43.5231 7.331H46.5478C46.8134 7.331 46.7957 7.31766 46.7957 7.56448V22.9869C46.7957 23.3038 46.824 23.2671 46.4946 23.2671C45.1842 23.2671 42.5633 23.2604 41.8763 23.2671C41.7063 23.2704 41.6638 23.3672 41.6638 23.3672L39.1952 28.4335C39.1952 28.4335 39.1456 28.5169 39.1669 28.5536C39.1881 28.5903 39.2129 28.5802 39.3723 28.5802C45.5632 28.5869 51.7529 28.5891 57.9414 28.5869C58.0477 28.5836 58.0618 28.5669 58.0654 28.4769V23.3438ZM72.8591 11.9037C72.8591 11.9504 72.8354 11.9771 72.7882 11.9838C71.5628 12.0038 70.3374 11.9971 69.1155 11.9971C69.0659 11.9904 69.0399 11.9637 69.0376 11.9171C69.0234 10.4695 69.0116 9.02089 69.0021 7.57115C69.0021 7.33101 68.9809 7.33434 69.25 7.33767L71.8461 7.32767C71.9913 7.32767 72.133 7.33434 72.2711 7.3777C72.6005 7.46108 72.8378 7.73458 72.8555 8.0581C72.8768 9.49562 72.8626 11.9037 72.8591 11.9037ZM82.3154 12.7175C81.3496 12.2418 80.2779 11.9881 79.1881 11.9771H78.5506C78.4089 11.9738 78.4089 11.9671 78.4018 11.8437V8.32493C78.4042 7.88467 78.3747 7.44663 78.3133 7.01082C78.2302 6.39886 78.0474 5.80262 77.7714 5.2431C77.2698 4.2273 76.4272 3.39515 75.3737 2.87504C74.2823 2.32762 73.0683 2.03265 71.832 2.01452C71.2901 2.00452 69.8238 2.01452 69.2819 2.01452C69.034 2.01452 69.0411 2.02787 69.0411 1.79773V0.153425C69.0411 0.0500301 69.0057 0.0166769 68.8782 0.0233476H63.5019C63.5019 0.0233476 63.4452 0.0233475 63.4204 0.0466946C63.4015 0.0644829 63.3921 0.0900528 63.3921 0.123406V1.94448C63.3638 2.06455 63.1902 1.99451 63.1017 2.01786H59.7371C59.6591 2.02453 59.6379 2.04454 59.6308 2.12459V7.06418C59.6308 7.36436 59.6166 7.33767 59.9212 7.33767H63.1548C63.4452 7.33767 63.4098 7.76459 63.4098 7.76459V11.5935C63.4098 11.5935 63.4204 11.9838 63.1973 11.9838H57.9485C57.7077 11.9838 57.736 12.2573 57.736 12.2573V17.0768C57.736 17.0768 57.7006 17.3036 57.9627 17.3036H63.1229C63.4133 17.3036 63.3921 17.2836 63.3921 17.5671V28.3234C63.3921 28.6169 63.3673 28.5936 63.6825 28.5936H68.7471C69.0659 28.5936 69.0376 28.6169 69.0376 28.3268V17.4203C69.0376 17.3236 69.0588 17.3036 69.1544 17.3036L77.3818 17.2936C77.7237 17.2963 78.0613 17.3655 78.3735 17.497C78.6548 17.614 78.8952 17.8035 79.0669 18.0437C79.2386 18.284 79.3347 18.565 79.3439 18.8545C79.3722 20.1719 79.3545 21.4894 79.3545 22.8068C79.3545 23.6707 78.9756 24.0309 78.1858 24.0309H73.872C73.7905 24.0376 73.7693 24.0576 73.7728 24.1409C74.4245 25.5974 75.0974 27.046 75.7916 28.4869C75.8056 28.5113 75.826 28.532 75.8507 28.5472C75.8755 28.5623 75.9038 28.5714 75.9332 28.5736C76.5353 28.5903 77.1374 28.5802 77.7395 28.5836C78.2708 28.5769 79.5706 28.5969 80.0983 28.5502C80.5879 28.5142 81.0721 28.4304 81.5433 28.3001C83.6329 27.6997 84.9965 25.972 85 23.9208V17.3136C85.0024 16.8889 84.9622 16.4664 84.8796 16.0462C84.8796 16.3063 84.7769 13.9082 82.3154 12.7175Z" fill="black"/>
</svg>
