<svg width="85" height="57" viewBox="0 0 85 57" fill="none" xmlns="http://www.w3.org/2000/svg">
<path d="M83.222 8.80846C82.7405 7.10565 81.7931 5.5516 80.4743 4.30149C79.1555 3.05138 77.5116 2.14895 75.7066 1.68431C69.0801 3.97596e-07 42.5 0 42.5 0C42.5 0 15.9198 3.97596e-07 9.28978 1.68431C7.48547 2.14946 5.84225 3.05211 4.52414 4.30219C3.20602 5.55227 2.25911 7.10605 1.77792 8.80846C0 15.0921 0 28.1997 0 28.1997C0 28.1997 0 41.3074 1.77792 47.591C2.25942 49.2938 3.20686 50.8479 4.52564 52.098C5.84441 53.3481 7.48836 54.2505 9.29333 54.7152C15.9198 56.3995 42.5 56.3995 42.5 56.3995C42.5 56.3995 69.0802 56.3995 75.7102 54.7152C77.5151 54.2505 79.1591 53.3481 80.4778 52.098C81.7966 50.8479 82.7441 49.2938 83.2256 47.591C84.9999 41.3074 84.9999 28.1997 84.9999 28.1997C84.9999 28.1997 84.9999 15.0921 83.222 8.80846ZM33.8052 40.1V16.2995L56.022 28.1997L33.8052 40.1Z" fill="black"/>
</svg>
